<?xml version="1.0" encoding="UTF-8" standalone="no"?>
<svg width="1920px" height="262px" viewBox="0 0 1920 262" version="1.1" xmlns="http://www.w3.org/2000/svg" xmlns:xlink="http://www.w3.org/1999/xlink">
    <!-- Generator: Sketch 45.1 (43504) - http://www.bohemiancoding.com/sketch -->
    <title>background-cta</title>
    <desc>Created with Sketch.</desc>
    <defs>
        <rect id="path-1" x="0" y="0" width="1920" height="262"></rect>
        <linearGradient x1="14.7639008%" y1="50%" x2="94.4995271%" y2="50%" id="linearGradient-3">
            <stop stop-color="#FFFFFF" stop-opacity="0" offset="0%"></stop>
            <stop stop-color="#FFFFFF" offset="100%"></stop>
        </linearGradient>
    </defs>
    <g id="Symbols" stroke="none" stroke-width="1" fill="none" fill-rule="evenodd">
        <g id="Elements-/-Big-Fat-CTA-of-Death" transform="translate(0.000000, -72.000000)">
            <g id="Big-Fat-CTA-of-Death" transform="translate(0.000000, 72.000000)">
                <g id="background-cta">
                    <mask id="mask-2" fill="white">
                        <use xlink:href="#path-1"></use>
                    </mask>
                    <use id="background" fill="#0E1B23" transform="translate(960.000000, 131.000000) scale(1, -1) translate(-960.000000, -131.000000) " xlink:href="#path-1"></use>
                    <g id="Group" opacity="0.2" style="mix-blend-mode: lighten;" mask="url(#mask-2)" fill-rule="nonzero" fill="url(#linearGradient-3)">
                        <g transform="translate(94.649145, -55.329913)">
                            <path d="M766.594827,218.598609 L1436.0152,218.598609 C1453.30895,218.598609 1467.32829,232.623839 1467.32829,249.933335 L1467.32829,249.933335 C1467.32829,267.239027 1453.31113,281.268061 1436.0152,281.268061 L766.594827,281.268061 L766.594827,218.598609 Z" id="Rectangle-13-Copy-12"></path>
                            <path d="M496,82 L965.059096,82 C977.176725,82 987,91.8470642 987,104 L987,104 C987,116.150265 977.178252,126 965.059096,126 L496,126 L496,82 Z" id="Rectangle-13-Copy-21"></path>
                            <path d="M33,180 L702.420377,180 C719.714119,180 733.733465,194.02523 733.733465,211.334726 L733.733465,211.334726 C733.733465,228.640418 719.716303,242.669452 702.420377,242.669452 L33,242.669452 L33,180 Z" id="Rectangle-13-Copy-22"></path>
                            <path d="M1219.83165,162.08741 L1420.44755,162.08741 C1425.63025,162.08741 1429.83165,166.339551 1429.83165,171.58741 L1429.83165,171.58741 C1429.83165,176.834115 1425.6309,181.08741 1420.44755,181.08741 L1219.83165,181.08741 L1219.83165,162.08741 Z" id="Rectangle-13-Copy-25"></path>
                            <path d="M464,72 L664.615907,72 C669.798599,72 674,76.2521414 674,81.5 L674,81.5 C674,86.7467052 669.799253,91 664.615907,91 L464,91 L464,72 Z" id="Rectangle-13-Copy-25"></path>
                            <path d="M897.739965,109.480729 L1567.16034,109.480729 C1584.45409,109.480729 1598.47343,123.505959 1598.47343,140.815455 L1598.47343,140.815455 C1598.47343,158.121147 1584.45627,172.150181 1567.16034,172.150181 L897.739965,172.150181 L897.739965,109.480729 Z" id="Rectangle-13-Copy-27"></path>
                            <path d="M-2.96651592e-13,293 L669.420378,293 C686.714121,293 700.733465,307.02523 700.733465,324.334726 L700.733465,324.334726 C700.733465,341.640418 686.716301,355.669452 669.420378,355.669452 L-2.96651592e-13,355.669452 L-2.96651592e-13,293 Z" id="Rectangle-13-Copy-27-Copy"></path>
                            <path d="M350.343056,259.29368 L1019.76343,259.29368 C1037.05718,259.29368 1051.07652,273.31891 1051.07652,290.628406 L1051.07652,290.628406 C1051.07652,307.934098 1037.05936,321.963132 1019.76343,321.963132 L350.343056,321.963132 L350.343056,259.29368 Z" id="Rectangle-13-Copy-26"></path>
                            <path d="M428,155 L1097.42038,155 C1114.71412,155 1128.73346,169.02523 1128.73346,186.334726 L1128.73346,186.334726 C1128.73346,203.640418 1114.7163,217.669452 1097.42038,217.669452 L428,217.669452 L428,155 Z" id="Rectangle-13-Copy-33"></path>
                            <path d="M502.889856,31.366171 L1172.31023,31.366171 C1189.60398,31.366171 1203.62332,45.3914007 1203.62332,62.7008972 L1203.62332,62.7008972 C1203.62332,80.0065888 1189.60616,94.0356231 1172.31023,94.0356231 L502.889856,94.0356231 L502.889856,31.366171 Z" id="Rectangle-13-Copy-31"></path>
                            <path d="M1029.36254,0.0770594635 L1698.78291,0.0770594635 C1716.07666,0.0770594635 1730.096,14.1022892 1730.096,31.4117857 L1730.096,31.4117857 C1730.096,48.7174771 1716.07884,62.7465119 1698.78291,62.7465119 L1029.36254,62.7465119 L1029.36254,0.0770594635 Z" id="Rectangle-13-Copy-32"></path>
                        </g>
                    </g>
                </g>
            </g>
        </g>
    </g>
</svg>